HIERARCHY
ROOT Hips
{
	OFFSET 0.00000 0.00000 0.00000
	CHANNELS 6 Xposition Yposition Zposition Zrotation Yrotation Xrotation 
	JOINT LHipJoint
	{
		OFFSET 0 0 0
		CHANNELS 3 Zrotation Yrotation Xrotation
		JOINT LeftUpLeg
		{
			OFFSET 1.41496 -1.84582 0.78394
			CHANNELS 3 Zrotation Yrotation Xrotation
			JOINT LeftLeg
			{
				OFFSET 2.58040 -7.08960 0.00000
				CHANNELS 3 Zrotation Yrotation Xrotation
				JOINT LeftFoot
				{
					OFFSET 2.64719 -7.27309 0.00000
					CHANNELS 3 Zrotation Yrotation Xrotation
					JOINT LeftToeBase
					{
						OFFSET 0.20718 -0.56921 2.20259
						CHANNELS 3 Zrotation Yrotation Xrotation
						End Site
						{
							OFFSET 0.00000 -0.00000 1.14243
						}
					}
				}
			}
		}
	}
	JOINT RHipJoint
	{
		OFFSET 0 0 0
		CHANNELS 3 Zrotation Yrotation Xrotation
		JOINT RightUpLeg
		{
			OFFSET -1.40551 -1.84582 0.78394
			CHANNELS 3 Zrotation Yrotation Xrotation
			JOINT RightLeg
			{
				OFFSET -2.56572 -7.04926 0.00000
				CHANNELS 3 Zrotation Yrotation Xrotation
				JOINT RightFoot
				{
					OFFSET -2.57974 -7.08778 0.00000
					CHANNELS 3 Zrotation Yrotation Xrotation
					JOINT RightToeBase
					{
						OFFSET -0.26704 -0.73369 2.20815
						CHANNELS 3 Zrotation Yrotation Xrotation
						End Site
						{
							OFFSET -0.00000 -0.00000 1.16246
						}
					}
				}
			}
		}
	}
	JOINT LowerBack
	{
		OFFSET 0 0 0
		CHANNELS 3 Zrotation Yrotation Xrotation
		JOINT Spine
		{
			OFFSET -0.04690 2.05196 -0.07017
			CHANNELS 3 Zrotation Yrotation Xrotation
			JOINT Spine1
			{
				OFFSET 0.04085 2.05260 0.00800
				CHANNELS 3 Zrotation Yrotation Xrotation
				JOINT Neck
				{
					OFFSET 0 0 0
					CHANNELS 3 Zrotation Yrotation Xrotation
					JOINT Neck1
					{
						OFFSET -0.03582 1.80995 0.19301
						CHANNELS 3 Zrotation Yrotation Xrotation
						JOINT Head
						{
							OFFSET 0.00952 1.80195 -0.36389
							CHANNELS 3 Zrotation Yrotation Xrotation
							End Site
							{
								OFFSET 0.00392 1.85062 -0.14494
							}
						}
					}
				}
				JOINT LeftShoulder
				{
					OFFSET 0 0 0
					CHANNELS 3 Zrotation Yrotation Xrotation
					JOINT LeftArm
					{
						OFFSET 3.55224 1.39726 -0.13667
						CHANNELS 3 Zrotation Yrotation Xrotation
						JOINT LeftForeArm
						{
							OFFSET 5.14507 -0.00000 -0.00000
							CHANNELS 3 Zrotation Yrotation Xrotation
							JOINT LeftHand
							{
								OFFSET 3.50646 -0.00000 0.00000
								CHANNELS 3 Zrotation Yrotation Xrotation
								JOINT LeftFingerBase
								{
									OFFSET 0 0 0
									CHANNELS 3 Zrotation Yrotation Xrotation
									JOINT LeftHandIndex1
									{
										OFFSET 0.62997 -0.00000 0.00000
										CHANNELS 3 Zrotation Yrotation Xrotation
										End Site
										{
											OFFSET 0.50790 -0.00000 0.00000
										}
									}
								}
								JOINT LThumb
								{
									OFFSET 0 0 0
									CHANNELS 3 Zrotation Yrotation Xrotation
									End Site
									{
										OFFSET 0.51565 -0.00000 0.51565
									}
								}
							}
						}
					}
				}
				JOINT RightShoulder
				{
					OFFSET 0 0 0
					CHANNELS 3 Zrotation Yrotation Xrotation
					JOINT RightArm
					{
						OFFSET -3.06467 1.61290 -0.28813
						CHANNELS 3 Zrotation Yrotation Xrotation
						JOINT RightForeArm
						{
							OFFSET -5.23200 -0.00000 -0.00000
							CHANNELS 3 Zrotation Yrotation Xrotation
							JOINT RightHand
							{
								OFFSET -3.65641 -0.00000 0.00000
								CHANNELS 3 Zrotation Yrotation Xrotation
								JOINT RightFingerBase
								{
									OFFSET 0 0 0
									CHANNELS 3 Zrotation Yrotation Xrotation
									JOINT RightHandIndex1
									{
										OFFSET -0.65681 -0.00000 0.00000
										CHANNELS 3 Zrotation Yrotation Xrotation
										End Site
										{
											OFFSET -0.52953 -0.00000 0.00000
										}
									}
								}
								JOINT RThumb
								{
									OFFSET 0 0 0
									CHANNELS 3 Zrotation Yrotation Xrotation
									End Site
									{
										OFFSET -0.53762 -0.00000 0.53762
									}
								}
							}
						}
					}
				}
			}
		}
	}
}
MOTION
Frames: 6
Frame Time: .0083333
9.0776 13.4861 -1.4668 41.8378 -87.6342 -16.9952 0.0000 0.0000 0.0000 2.2803 4.6581 -91.4719 24.5315 19.5004 103.3561 -1.4173 -24.5352 -5.3682 0.9558 -6.2256 -17.4405 0.0000 0.0000 0.0000 16.5160 -19.5932 -98.7491 -28.5952 -18.1275 115.9107 0.5577 14.6432 12.4497 -0.6923 5.3191 -14.8210 2.1015 -4.9886 53.1543 -2.8931 -7.2935 12.6774 -0.8985 -3.9177 -7.1367 -11.0799 -10.1942 3.8830 21.2621 -13.3013 -6.9764 8.2727 -7.2079 -0.3779 0.0000 0.0000 0.0000 -72.8447 -7.2643 5.1425 138.5176 -48.9241 -100.4505 -0.0000 0.0000 -15.3211 34.9856 9.7223 6.7401 -7.1250 0.0000 -0.0000 7.1718 41.6835 -0.5901 0.0000 0.0000 0.0000 91.0703 -7.3698 29.7702 -40.5109 48.3697 -18.8203 0.0000 -0.0000 -12.6483 -23.6744 -0.9749 0.4274 7.1250 -0.0000 -0.0000 2.3066 -31.0395 0.7875
8.9707 13.4778 -1.8923 6.5413 -87.0996 17.9614 0.0000 0.0000 0.0000 0.7219 4.6013 -93.0202 24.8397 19.4289 104.2810 -2.3205 -28.6610 -2.6646 0.9429 -6.1844 -17.3205 0.0000 0.0000 0.0000 16.6429 -19.9492 -97.9367 -28.8184 -18.0228 116.6302 0.1970 10.5751 11.4317 -0.0758 1.7761 -4.8872 3.1101 -5.3469 53.4594 -2.5203 -7.1183 12.5344 -1.0096 -3.8396 -7.3138 -11.1809 -10.2481 3.6692 21.7401 -13.3921 -6.7360 8.4097 -7.2508 -0.2115 0.0000 -0.0000 0.0000 -71.8572 -7.2918 7.5979 139.9589 -48.0943 -101.5301 -0.0000 0.0000 -13.2655 33.9624 9.6081 6.4144 -7.1250 0.0000 -0.0000 6.2445 41.4348 -0.5515 0.0000 -0.0000 0.0000 91.0699 -6.1586 29.5175 -37.9671 46.8183 -16.9416 0.0000 -0.0000 -12.7151 -23.5599 -1.3337 0.5815 7.1250 -0.0000 -0.0000 2.4103 -31.4293 0.8004
8.8607 13.4984 -2.3302 -10.1988 -86.1714 34.0575 0.0000 0.0000 0.0000 -0.8561 4.4917 -93.3523 24.8141 19.4350 104.2039 -3.4759 -32.5872 1.3987 0.6064 -4.9843 -13.8639 0.0000 0.0000 0.0000 15.8506 -20.2509 -96.2490 -28.8531 -18.0062 116.7424 -0.0115 6.9132 10.1304 -0.1061 -2.1003 5.7830 3.6372 -5.2305 54.2780 -1.9277 -6.6101 12.3198 -0.7943 -3.6407 -7.5458 -10.9482 -10.4910 3.7308 21.8669 -13.6791 -6.9770 8.4072 -7.4210 -0.2486 0.0000 0.0000 0.0000 -71.7913 -7.8316 10.6635 140.9341 -47.5066 -102.2526 -0.0000 0.0000 -9.0910 32.0969 8.3247 5.1889 -7.1250 0.0000 -0.0000 4.5761 39.7396 -0.5948 0.0000 0.0000 0.0000 90.8669 -4.9493 28.8896 -35.6597 45.2775 -15.2802 0.0000 -0.0000 -12.8891 -23.8391 -1.7061 0.7537 7.1250 -0.0000 -0.0000 2.2001 -31.8401 0.7088
8.7622 13.5005 -2.7423 -16.5040 -85.3385 40.1772 0.0000 0.0000 0.0000 -2.3944 3.8958 -93.5945 24.5262 19.5016 103.3402 -4.5026 -35.1845 6.5636 0.4597 -4.3493 -12.0614 0.0000 0.0000 0.0000 14.4164 -20.3217 -95.0604 -28.6973 -18.0800 116.2393 -0.0631 4.7130 8.6035 -0.3172 -3.6203 10.0109 3.8293 -5.4272 54.4454 -1.3629 -6.6217 12.1195 -0.2490 -3.6719 -7.7152 -11.9007 -10.3462 3.6722 22.2083 -13.5259 -7.0899 8.6760 -7.3381 -0.1960 0.0000 -0.0000 0.0000 -72.0174 -7.9003 12.5094 141.7115 -47.0226 -102.8237 -0.0000 0.0000 -4.8019 31.0026 7.1161 4.2574 -7.1250 0.0000 -0.0000 3.6277 38.2434 -0.6045 0.0000 -0.0000 0.0000 89.8899 -3.6110 28.9950 -33.3203 43.5747 -13.6423 0.0000 -0.0000 -12.3321 -23.9241 -2.0026 0.8882 7.1250 -0.0000 -0.0000 2.1429 -32.1657 0.6736
8.6615 13.4921 -3.1524 -16.4811 -84.9685 40.2423 0.0000 0.0000 0.0000 -4.0619 3.1294 -93.2848 23.9983 19.6123 101.7634 -5.0310 -36.3156 10.5827 0.2179 -3.0053 -8.2935 0.0000 0.0000 0.0000 12.1095 -20.2470 -94.1010 -28.3721 -18.2289 115.1955 -0.0728 2.8603 6.9696 -0.4423 -4.2674 11.8301 3.9346 -5.4333 54.1702 -1.1673 -6.5338 12.0691 -0.1281 -3.6361 -7.7253 -12.0185 -10.4352 3.5580 22.4682 -13.6133 -7.3807 8.7742 -7.4013 -0.2119 0.0000 -0.0000 0.0000 -71.6991 -8.3558 14.7790 142.2386 -46.6862 -103.2082 -0.0000 0.0000 -0.9437 30.9685 5.6314 3.3701 -7.1250 0.0000 -0.0000 3.6002 36.5194 -0.7521 0.0000 -0.0000 0.0000 89.4859 -2.2748 28.4956 -31.2957 41.9784 -12.2672 0.0000 -0.0000 -11.7634 -24.2549 -2.2852 1.0293 7.1250 -0.0000 -0.0000 1.8867 -32.4821 0.5786
8.5530 13.5073 -3.5765 -22.3182 -85.2597 45.6304 0.0000 0.0000 0.0000 -5.6384 3.5405 -91.7557 23.3424 19.7300 99.8149 -3.9743 -35.7534 -1.7656 0.0534 -1.4912 -4.1014 0.0000 0.0000 0.0000 9.4140 -19.1092 -92.0182 -27.7820 -18.4813 113.3220 -0.0577 1.2747 5.1955 -0.4286 -4.2015 11.6442 2.7706 -4.1259 54.5009 -0.1365 -5.5614 12.1570 1.0876 -3.3077 -7.4904 -12.4401 -10.6267 3.5319 22.4443 -13.7972 -8.2776 8.8534 -7.5256 -0.3972 0.0000 0.0000 0.0000 -72.4425 -9.4174 17.3402 142.4897 -46.5237 -103.3907 -0.0000 -0.0000 2.8172 31.6585 4.4902 2.7637 -7.1250 0.0000 -0.0000 4.1661 35.2262 -1.0024 0.0000 0.0000 0.0000 88.0107 -0.6280 27.6795 -29.5361 40.4924 -11.1071 0.0000 -0.0000 -11.5194 -24.6522 -2.4667 1.1316 7.1250 -0.0000 -0.0000 1.5719 -32.6908 0.4741
